<?xml version="1.0" encoding="UTF-8"?>
<svg width="512" height="512" viewBox="0 0 512 512" fill="none" xmlns="http://www.w3.org/2000/svg">
  <!-- Fond du panneau -->
  <rect width="512" height="512" rx="256" fill="#2563EB"/>
  

  
  <!-- Symbole de parking -->
  <path d="M384 320c0 35.3-28.7 64-64 64H192c-35.3 0-64-28.7-64-64V192c0-35.3 28.7-64 64-64h128c35.3 0 64 28.7 64 64v128z" 
        fill="none" stroke="white" stroke-width="24" stroke-linecap="round" stroke-linejoin="round"/>
  
  <!-- Deuxième symbole de parking (rotation 45°) -->
  <path d="M384 320c0 35.3-28.7 64-64 64H192c-35.3 0-64-28.7-64-64V192c0-35.3 28.7-64 64-64h128c35.3 0 64 28.7 64 64v128z" 
        fill="none" stroke="white" stroke-width="24" stroke-linecap="round" stroke-linejoin="round"
        transform="rotate(45 256 256) scale(0.9) translate(28.4 28.4)"/>
</svg> 